  0
SECTION
  2
HEADER
  9
$ACADVER
  1
AC1009
  9
$INSBASE
 10
0.0
 20
0.0
 30
0.0
  9
$EXTMIN
 10
0.0
 20
0.0
 30
0.0
  9
$EXTMAX
 10
0.0
 20
0.0
 30
0.0
  0
ENDSEC
  0
SECTION
  2
TABLES
  0
TABLE
  2
VPORT
 70
0
  0
ENDTAB
  0
TABLE
  2
LTYPE
 70
1
  0
LTYPE
  2
CONTINUOUS
 70
0
  3
Solid line
 72
65
 73
0
 40
0.0
  0
ENDTAB
  0
TABLE
  2
LAYER
 70
1
  0
LAYER
  2
0
 70
64
 62
7
  6
continuous
  0
ENDTAB
  0
TABLE
  2
STYLE
 70
1
  0
STYLE
  2
STANDARD
 70
0
 40
0
 41
1.0
 50
0.0
 71
0
 42
1
 3
ARIAL.TTF
 4

  0
ENDTAB
  0
TABLE
  2
VIEW
 70
0
  0
ENDTAB
  0
ENDSEC
  0
SECTION
  2
BLOCKS
  0
BLOCK
  8
0
  2
SHAPE2DVIEW
 70
0
 10
0.0
 20
0.0
 30
0.0
  3
SHAPE2DVIEW
  0
LINE
  8
0
 62
0
 10
11.1018016556
 20
70.5
 30
0.0
 11
41.9625700501
 21
70.5
 31
0.0
  0
ARC
  8
0
 62
0
 10
11.1018016556
 20
73.5
 30
0.0
 40
3.0
 50
-164.878334685
 51
-90.0
  0
ARC
  8
0
 62
0
 10
52.0
 20
75.0
 30
0.0
 40
11.0
 50
-155.852260083
 51
-90.0
  0
ARC
  8
0
 62
0
 10
0.0
 20
70.5
 30
0.0
 40
8.5
 50
15.1216653149
 51
164.878334685
  0
LINE
  8
0
 62
0
 10
52.0
 20
64.0
 30
0.0
 11
56.0
 21
64.0
 31
0.0
  0
ARC
  8
0
 62
0
 10
-11.1018016556
 20
73.5
 30
0.0
 40
3.0
 50
-90.0
 51
-15.1216653149
  0
LINE
  8
0
 62
0
 10
56.0
 20
64.0
 30
0.0
 11
57.5
 21
64.0
 31
0.0
  0
LINE
  8
0
 62
0
 10
-18.5
 20
70.5
 30
0.0
 11
-11.1018016556
 21
70.5
 31
0.0
  0
LINE
  8
0
 62
0
 10
57.5
 20
64.0
 30
0.0
 11
57.5
 21
29.0
 31
0.0
  0
ARC
  8
0
 62
0
 10
-18.5
 20
66.5
 30
0.0
 40
4.0
 50
90.0
 51
-180.0
  0
ARC
  8
0
 62
0
 10
52.5
 20
29.0
 30
0.0
 40
5.0
 50
-90.0
 51
-0.0
  0
LINE
  8
0
 62
0
 10
-22.5
 20
27.5
 30
0.0
 11
-22.5
 21
66.5
 31
0.0
  0
LINE
  8
0
 62
0
 10
39.0
 20
24.0
 30
0.0
 11
52.5
 21
24.0
 31
0.0
  0
ARC
  8
0
 62
0
 10
-32.5
 20
27.5
 30
0.0
 40
10.0
 50
-90.0
 51
-0.0
  0
ARC
  8
0
 62
0
 10
39.0
 20
20.0
 30
0.0
 40
4.0
 50
90.0
 51
-180.0
  0
LINE
  8
0
 62
0
 10
-44.0
 20
17.5
 30
0.0
 11
-32.5
 21
17.5
 31
0.0
  0
LINE
  8
0
 62
0
 10
35.0
 20
20.0
 30
0.0
 11
35.0
 21
-60.5
 31
0.0
  0
ARC
  8
0
 62
0
 10
-44.0
 20
12.5
 30
0.0
 40
5.0
 50
90.0
 51
-180.0
  0
ARC
  8
0
 62
0
 10
25.0
 20
-60.5
 30
0.0
 40
10.0
 50
-90.0
 51
-0.0
  0
LINE
  8
0
 62
0
 10
-49.0
 20
-64.4169947557
 30
0.0
 11
-49.0
 21
12.5
 31
0.0
  0
LINE
  8
0
 62
0
 10
11.1018016556
 20
-70.5
 30
0.0
 11
25.0
 21
-70.5
 31
0.0
  0
ARC
  8
0
 62
0
 10
-52.0
 20
-75.0
 30
0.0
 40
11.0
 50
24.147739917
 51
74.1733798681
  0
ARC
  8
0
 62
0
 10
11.1018016556
 20
-73.5
 30
0.0
 40
3.0
 50
90.0
 51
164.878334685
  0
LINE
  8
0
 62
0
 10
-11.1018016556
 20
-70.5
 30
0.0
 11
-41.9625700501
 21
-70.5
 31
0.0
  0
ARC
  8
0
 62
0
 10
0.0
 20
-70.5
 30
0.0
 40
8.5
 50
-164.878334685
 51
-15.1216653149
  0
ARC
  8
0
 62
0
 10
-11.1018016556
 20
-73.5
 30
0.0
 40
3.0
 50
15.1216653149
 51
90.0
  0
CIRCLE
  8
0
 62
0
 10
32.5
 20
59.0
 30
0.0
 40
2.2
  0
CIRCLE
  8
0
 62
0
 10
0.0
 20
-70.5
 30
0.0
 40
2.2
  0
CIRCLE
  8
0
 62
0
 10
0.0
 20
70.5
 30
0.0
 40
2.2
  0
CIRCLE
  8
0
 62
0
 10
52.5
 20
29.0
 30
0.0
 40
2.2
  0
CIRCLE
  8
0
 62
0
 10
5.0
 20
-4.5
 30
0.0
 40
1.8
  0
CIRCLE
  8
0
 62
0
 10
5.0
 20
-62.5
 30
0.0
 40
1.8
  0
CIRCLE
  8
0
 62
0
 10
-44.0
 20
-4.5
 30
0.0
 40
1.8
  0
CIRCLE
  8
0
 62
0
 10
-44.0
 20
-62.5
 30
0.0
 40
1.8
  0
ENDBLK
  0
ENDSEC
  0
SECTION
  2
ENTITIES
  0
INSERT
  2
SHAPE2DVIEW
  8
0
 62
0
 10
0.0
 20
0.0
 30
0.0
  0
ENDSEC
  0
EOF
